<svg width="28" height="28" viewBox="0 0 28 28" fill="none" xmlns="http://www.w3.org/2000/svg">
<path d="M5.25033 7.0026H7.58366V10.5026H19.2503V7.0026H21.5837V14.0026H23.917V7.0026C23.917 5.71927 22.867 4.66927 21.5837 4.66927H16.707C16.217 3.31594 14.9337 2.33594 13.417 2.33594C11.9003 2.33594 10.617 3.31594 10.127 4.66927H5.25033C3.96699 4.66927 2.91699 5.71927 2.91699 7.0026V23.3359C2.91699 24.6193 3.96699 25.6693 5.25033 25.6693H11.0837V23.3359H5.25033V7.0026ZM13.417 4.66927C14.0587 4.66927 14.5837 5.19427 14.5837 5.83594C14.5837 6.4776 14.0587 7.0026 13.417 7.0026C12.7753 7.0026 12.2503 6.4776 12.2503 5.83594C12.2503 5.19427 12.7753 4.66927 13.417 4.66927Z" fill="#1F1F1F"/>
<path d="M20.4287 16.3359L18.772 17.9809L20.6153 19.8243H13.417V22.1576H20.6153L18.772 24.0126L20.4287 25.6576L25.0837 20.9909L20.4287 16.3359Z" fill="#1F1F1F"/>
</svg>
