<svg width="28" height="28" viewBox="0 0 28 28" fill="none" xmlns="http://www.w3.org/2000/svg">
<path d="M4.08333 21.5833V8.75H22.75V12.5883C23.59 12.845 24.3833 13.2183 25.0833 13.72V8.75C25.0833 7.455 24.045 6.41667 22.75 6.41667H18.0833V4.08333C18.0833 2.78833 17.045 1.75 15.75 1.75H11.0833C9.78833 1.75 8.75 2.78833 8.75 4.08333V6.41667H4.08333C2.78833 6.41667 1.76167 7.455 1.76167 8.75L1.75 21.5833C1.75 22.8783 2.78833 23.9167 4.08333 23.9167H13.0433C12.6933 23.1933 12.46 22.4117 12.3433 21.5833H4.08333ZM11.0833 4.08333H15.75V6.41667H11.0833V4.08333Z" fill="#0376DB"/>
<path d="M20.4167 14.5833C17.1967 14.5833 14.5833 17.1967 14.5833 20.4167C14.5833 23.6367 17.1967 26.25 20.4167 26.25C23.6367 26.25 26.25 23.6367 26.25 20.4167C26.25 17.1967 23.6367 14.5833 20.4167 14.5833ZM22.3417 23.1583L19.8333 20.65V16.9167H21V20.1717L23.1583 22.33L22.3417 23.1583Z" fill="#0376DB"/>
</svg>
