<svg width="22" height="20" viewBox="0 0 22 20" fill="none" xmlns="http://www.w3.org/2000/svg">
<path d="M9.0651 9.13542C11.4583 9.13542 13.3984 7.19532 13.3984 4.80208C13.3984 2.40885 11.4583 0.46875 9.0651 0.46875C6.67187 0.46875 4.73177 2.40885 4.73177 4.80208C4.73177 7.19532 6.67187 9.13542 9.0651 9.13542Z" fill="black"/>
<path d="M9.44427 11.3129C6.48677 11.2046 0.398438 12.6779 0.398438 15.6354V16.7188C0.398438 17.3146 0.885938 17.8021 1.48177 17.8021H10.7334C8.0576 14.8121 9.40094 11.4213 9.44427 11.3129Z" fill="black"/>
<path d="M19.2809 15.6571C19.7901 14.7904 20.0393 13.7396 19.8009 12.6021C19.4326 10.8254 17.9376 9.40625 16.1393 9.17875C13.2901 8.81042 10.8851 11.2046 11.2643 14.0538C11.5026 15.8521 12.9109 17.3471 14.6876 17.7154C15.8251 17.9538 16.8759 17.7046 17.7426 17.1954L19.7576 19.2104C20.1801 19.6329 20.8626 19.6329 21.2851 19.2104C21.7076 18.7879 21.7076 18.1054 21.2851 17.6829L19.2809 15.6571ZM15.5651 15.6354C14.3734 15.6354 13.3984 14.6604 13.3984 13.4688C13.3984 12.2771 14.3734 11.3021 15.5651 11.3021C16.7568 11.3021 17.7318 12.2771 17.7318 13.4688C17.7318 14.6604 16.7568 15.6354 15.5651 15.6354Z" fill="black"/>
</svg>
