<svg width="24" height="26" viewBox="0 0 24 26" fill="none" xmlns="http://www.w3.org/2000/svg">
<path d="M3.25033 22.3307V10.6641H17.2503V11.8307C18.067 11.8307 18.8487 11.9474 19.5837 12.1691V10.6641C19.5837 9.38073 18.5337 8.33073 17.2503 8.33073H16.0837V5.9974C16.0837 2.7774 13.4703 0.164062 10.2503 0.164062C7.03033 0.164062 4.41699 2.7774 4.41699 5.9974V8.33073H3.25033C1.96699 8.33073 0.916992 9.38073 0.916992 10.6641V22.3307C0.916992 23.6141 1.96699 24.6641 3.25033 24.6641H10.5537C10.0637 23.9641 9.67866 23.1707 9.42199 22.3307H3.25033ZM6.75033 5.9974C6.75033 4.06073 8.31366 2.4974 10.2503 2.4974C12.187 2.4974 13.7503 4.06073 13.7503 5.9974V8.33073H6.75033V5.9974Z" fill="black"/>
<path d="M17.2503 14.1641C14.0303 14.1641 11.417 16.7774 11.417 19.9974C11.417 23.2174 14.0303 25.8307 17.2503 25.8307C20.4703 25.8307 23.0837 23.2174 23.0837 19.9974C23.0837 16.7774 20.4703 14.1641 17.2503 14.1641ZM17.2503 16.4974C18.2187 16.4974 19.0003 17.2791 19.0003 18.2474C19.0003 19.2157 18.2187 19.9974 17.2503 19.9974C16.282 19.9974 15.5003 19.2157 15.5003 18.2474C15.5003 17.2791 16.282 16.4974 17.2503 16.4974ZM17.2503 23.4974C16.0487 23.4974 14.987 22.8907 14.357 21.9574C15.2087 21.4674 16.1887 21.1641 17.2503 21.1641C18.312 21.1641 19.292 21.4674 20.1437 21.9574C19.5137 22.8907 18.452 23.4974 17.2503 23.4974Z" fill="black"/>
</svg>
